<svg xmlns="http://www.w3.org/2000/svg" width="272" height="92">
    <path fill="#EA4335" d="M116 47c0 13-10 22-22 22s-23-9-23-22 10-22 23-22 22 9 22 22zm-10 0c0-8-6-13-12-13s-13 5-13 13 6 14 12 14 13-6 13-14z" />
    <path fill="#FBBC05" d="M164 47c0 13-10 22-22 22s-23-9-23-22 10-22 23-22 22 9 22 22zm-10 0c0-8-6-13-13-13s-12 5-12 13 6 14 13 14 12-6 12-14z" />
    <path fill="#4285F4" d="M210 26v40c0 17-10 23-21 23s-18-7-20-13l8-3c2 3 6 7 12 7 7 1 11-4 11-12v-4c-2 3-6 5-12 5-11 0-21-9-21-22 0-12 10-22 21-22 6 0 10 2 12 5v-4h10zm-9 21c0-8-5-13-12-13-6 0-12 5-12 13s6 14 12 14c7 0 12-6 12-14z" />
    <path fill="#34A853" d="M225 3v65h-9V3h9z" />
    <path fill="#EA4335" d="M262 54l8 6c-3 3-9 9-19 9-13 0-22-9-22-22s10-22 21-22c12 0 17 9 19 14l1 3-30 12c3 4 6 7 11 7s8-3 11-7zm-23-8l20-8c-2-3-5-4-9-4-5 0-11 4-11 12z" />
    <path fill="#4285F4" d="M35 41v-9h32v6c0 7-1 15-8 22-6 6-13 9-24 9C16 69 0 54 0 35S16 0 35 0c11 0 18 5 24 10l-7 7c-4-4-9-7-17-7-14 0-24 11-24 25s10 25 24 25c9 0 14-4 18-7 2-3 4-6 5-12H35z" />
</svg>
