<svg xmlns="http://www.w3.org/2000/svg" viewBox="0 0 604 129">
    <path fill="#737373" d="M213 74l-3 10h-1l-3-9-20-49h-18v77h12V56 45v-5l2 7 23 56h9l23-57 1-6v63h13V26h-18l-20 48zm51-26h13v55h-13zm6-24l-5 2c-2 2-2 4-2 6s0 4 2 5l5 2 6-2 2-5-2-6-6-2m53 23l-7-1c-6 0-12 2-16 4-5 3-8 6-11 11a34 34 0 0 0 0 30c3 4 6 8 10 10s9 4 14 4c7 0 12-2 16-4V89a22 22 0 0 1-13 5c-5 0-9-2-12-5s-4-8-4-13c0-6 1-10 4-14 3-3 7-5 12-5s9 2 13 5V49l-6-2m43 0l-9 3-5 7v-9h-13v55h13V75c0-5 1-9 3-12s5-4 8-4h4l3 1 1 1V48l-5-1m35-1c-9 0-16 3-21 8-6 6-8 13-8 22s3 16 8 21 11 8 20 8 16-3 21-9c5-5 8-12 8-21s-3-16-8-21c-4-5-11-8-20-8m11 43c-3 3-7 5-11 5s-9-2-11-5c-3-3-4-8-4-14 0-5 1-10 4-13 2-3 6-5 11-5 4 0 8 2 10 5 3 3 4 7 4 13s-1 11-3 14m46-18c-4-2-7-3-8-5l-2-4 2-4 6-1 7 1 6 2v1-12a36 36 0 0 0-12-3c-7 0-12 2-16 5s-6 7-6 12l2 7 4 5c1 2 4 3 8 5l6 3 3 2 1 3c0 4-3 6-8 6l-8-1c-3 0-5-3-7-4v-1 13a39 39 0 0 0 14 3c7 0 13-1 17-4 4-4 6-8 6-13 0-4-1-7-4-9-2-3-6-5-11-7m49-25c-9 0-17 3-22 8s-7 13-7 22 2 16 7 21 12 8 21 8 16-3 21-9c5-5 7-12 7-21s-2-16-7-21-11-8-20-8m10 43c-2 3-6 5-11 5-4 0-8-2-11-5s-4-8-4-14c0-5 2-10 4-13 3-3 7-5 11-5 5 0 8 2 11 5s4 7 4 13-1 11-4 14m87-31V48h-13V31h-1l-12 4v13h-20v-7l2-8c1-2 4-2 6-2l6 1 1 1V21h-1l-7-1-10 2c-3 2-6 4-7 8-2 3-3 6-3 10v8h-9v10h9v45h13V58h20v29c0 11 5 17 16 17h6l4-1V92h-1l-2 1-3 1-6-2-1-7V58h13z" />
    <path fill="#F25022" d="M0 0h61v61H0z" />
    <path fill="#7FBA00" d="M68 0h61v61H68z" />
    <path fill="#00A4EF" d="M0 68h61v61H0z" />
    <path fill="#FFB900" d="M68 68h61v61H68z" />
</svg>
