<svg xmlns="http://www.w3.org/2000/svg" width="500" height="90" version="1">
    <path d="M178 89c-18 0-34-6-46-16-8-7-12-18-12-28 0-11 4-21 12-29 11-9 29-15 46-15 20 0 35 5 46 15 9 8 13 18 13 29 0 10-4 21-13 28a68 68 0 0 1-46 16V77c10 0 19-3 25-9s9-14 9-23-3-17-9-23-15-10-25-10c-9 0-18 4-24 10s-9 14-9 23 3 17 9 23 15 9 24 9v12zM47 1C37 1 26 3 17 7S1 17 1 27s6 15 6 15c2 2 6 6 17 8l25 4 23 3c4 1 9 2 9 8s-6 8-7 8c-1 1-7 4-20 4-8 0-19-3-23-4-5-2-9-4-14-10-1-1-3-5-3-8H3v30h13v-4s0-2 2-1l18 6 19 2c12 0 19-2 24-4 5-1 10-3 15-7 2-2 8-7 8-16a23 23 0 0 0-14-21l-10-4-27-4-25-3c-1-1-4-2-4-6 0-2 1-4 4-6 4-3 13-4 22-4 11 0 20 2 26 5l6 3c3 2 5 6 7 11h9V5H85v3c0 1-1 2-3 1-5-2-18-8-35-8m240 5l54 48-1-32c0-5-1-6-5-6h-10V6h45v10h-9c-5 0-5 1-6 6l1 62h-15l-62-55v39c0 4 0 6 5 6h11v10h-45V74h10c4 0 4-4 4-6V22c0-3-1-6-7-6h-8V6h38zm136 68h2l2-2 1-2V55l-1-2-29-33c-2-2-5-4-9-4h-9V6h53v10h-6c-1 0-2 1-1 3a19802 19802 0 0 0 19 22l18-22c1-1 1-3-1-3h-7V6h44v10h-10c-3 0-5 0-8 3l-29 34-1 2v15l1 2 2 2h13v10h-54V74h10z" />
</svg>
